<?xml version="1.0" standalone="no"?><!DOCTYPE svg PUBLIC "-//W3C//DTD SVG 1.1//EN" "http://www.w3.org/Graphics/SVG/1.1/DTD/svg11.dtd"><svg t="1524300353448" class="icon" style="" viewBox="0 0 1024 1024" version="1.1" xmlns="http://www.w3.org/2000/svg" p-id="13818" xmlns:xlink="http://www.w3.org/1999/xlink" width="64" height="64"><defs><style type="text/css"></style></defs><path d="M512.005341 0C229.228771 0 0 229.228771 0 512.005341c0 282.765889 229.228771 511.993134 512.005341 511.993134 282.765889 0 511.993134-229.228771 511.993134-511.993134C1023.998474 229.228771 794.769703 0 512.005341 0M849.619081 353.344064 464.159765 738.801854c-9.407066 9.407066-21.737724 14.108311-34.062278 14.108311-12.338287 0-24.664367-4.70277-34.076011-14.108311L174.385497 517.162824c-18.811081-18.817185-18.811081-49.32263 0-68.133711 18.817185-18.821762 49.328734-18.821762 68.145918 0l187.564545 187.563019 351.381779-351.387883c18.812607-18.817185 49.324156-18.817185 68.141341 0C868.434739 304.019908 868.434739 334.52688 849.619081 353.344064" p-id="13819" fill="#e6e6e6"></path></svg>