<?xml version="1.0" standalone="no"?><!DOCTYPE svg PUBLIC "-//W3C//DTD SVG 1.1//EN" "http://www.w3.org/Graphics/SVG/1.1/DTD/svg11.dtd"><svg t="1524300991064" class="icon" style="" viewBox="0 0 1024 1024" version="1.1" xmlns="http://www.w3.org/2000/svg" p-id="2030" xmlns:xlink="http://www.w3.org/1999/xlink" width="64" height="64"><defs><style type="text/css"></style></defs><path d="M507.448889 70.542222c-245.76 0-443.733333 197.973333-443.733333 443.733334s200.248889 443.733333 443.733333 443.733333c245.76 0 443.733333-197.973333 443.733333-443.733333 0-243.484444-197.973333-443.733333-443.733333-443.733334z m248.035555 477.866667h-213.902222v213.902222c0 18.204444-15.928889 34.133333-34.133333 34.133333s-34.133333-15.928889-34.133333-34.133333v-213.902222h-213.902223c-18.204444 0-34.133333-15.928889-34.133333-34.133333s15.928889-34.133333 34.133333-34.133334h213.902223v-213.902222c0-18.204444 15.928889-34.133333 34.133333-34.133333s34.133333 15.928889 34.133333 34.133333v213.902222h213.902222c18.204444 0 34.133333 15.928889 34.133334 34.133334s-13.653333 34.133333-34.133334 34.133333z" fill="#e6e6e6" p-id="2031"></path></svg>